<svg xmlns="http://www.w3.org/2000/svg" viewBox="0 0 562.24 405.39">
  <defs>
    <style>
      .a {
        fill: #fff;
      }

      .b, .c {
        fill: none;
      }

      .c {
        stroke: #fff;
        stroke-miterlimit: 10;
      }
    </style>
  </defs>
  <g>
    <g>
      <path class="a" d="M487.31,14.24A84.67,84.67,0,0,1,474.69,35.6l0,0C465,48.93,446.58,63.46,425.25,77.39h0c-1.72,1.13-3.45,2.25-5.21,3.36l-5.14-5.4L412,72.24c.41.44,3.62-2.08,4.07-2.37l6.49-4.21c8-5.24,16-10.5,23.71-16.21a121.5,121.5,0,0,0,28-29.11A13.42,13.42,0,0,0,477,14c.72-9.42-9.82-3.88-14-1.11-22.38,14.71-45.48,32-60.63,54.41L394.29,64a240.11,240.11,0,0,1,30-34c11.38-10.66,24-20.32,38.47-26.15C468.8,1.45,481.06-3,486.41,3,489.07,5.9,488.65,10.77,487.31,14.24Z"/>
      <path class="a" d="M562.24,258.58c0,104.7-92.93,139.81-147.35,121.4a70.11,70.11,0,0,1-13.45-6.13c-61.05,38.19-125.12,34.2-148.2,26.33,0,0,73.32,7.41,131.58-31.14q2.3-1.52,4.51-3.09a185.32,185.32,0,0,0,15.57-12.21q1.73-1.49,3.4-3c40.51-37,57.05-84,60.17-109.09,0,0,13,68.28-46.46,117.52,34.93,7.82,61.7-5.19,63-5.83h0l0,0a100.41,100.41,0,0,0,17.6-13c49.75-46,50.39-118.11,16.7-173.57-23.11-38.06-59.07-67.46-99.31-86,1.76-1.11,3.49-2.23,5.21-3.36h0C459.24,93.24,562.24,150.28,562.24,258.58Z"/>
      <path class="a" d="M262.09,379.43c-4.82-1.26-10.24-1.29-15.17-2.19s-9.9-2-14.79-3.28a173.78,173.78,0,0,1-27.47-9.73,160.44,160.44,0,0,1-46.54-32.1,180.86,180.86,0,0,1-35.2-48.71c-11-22.75-18.34-48.22-17.2-73.79.38-8.56,2.53-17.35,5-25.54a162.07,162.07,0,0,1,27.85-53.15c4.53-5.69,9.67-11.86,16.06-15.55C139.82,147,143.85,183,167.12,205,152.25,244.83,134,347.19,262.09,379.43Z"/>
      <path class="a" d="M257.43,313.78a51.11,51.11,0,0,1-3.62-5.73Z"/>
      <path class="a" d="M460.94,228.7c.14-1.17-.47-2.82-.71-4,0-.19-.08-.37-.13-.56-3.68-18.28-11.07-35.43-26-47.44a75.36,75.36,0,0,0-17.76-10.52,96.56,96.56,0,0,0-26.71-6.91c-2.7-.32-5.41-.53-8.1-.65a136.87,136.87,0,0,0-33.73,2.72,227.42,227.42,0,0,1,9.16-30.65q3.8-9.63,8-18.47c16.83-8.81,35.18-19,52.24-29.7.69.77,1.58,1.78,2.62,3,8.72,10.18,28.29,35.1,36.24,62.07C466.44,182.83,460.94,228.7,460.94,228.7Z"/>
      <path class="a" d="M393.17,59.7l-.05,0c-.24.21-1.24,1.11-2.84,2.68C322.14,42.9,262.47,41.68,210.51,59.65q-45.21,15.57-81.93,50.72C149.33,68,212.23,21,282.25,21.62S393.17,59.7,393.17,59.7Z"/>
      <path class="a" d="M386.3,66.5a239.13,239.13,0,0,0-25.87,33c-22.61,9.32-44.51,16.24-53.58,19-2.09-16.21-9.31-31.13-21.63-42.24a66.46,66.46,0,0,0-32.6-15.92Q319.45,46.58,386.3,66.5Z"/>
      <path class="a" d="M264,104.76c-3-11.62-18.49-17.69-34.68-13.55s-26.95,16.85-24,28.48a16.46,16.46,0,0,0,3.85,7,48.33,48.33,0,0,0-9,2c-18.85,6.17-30.57,22.05-26.17,35.49s23.25,19.3,42.09,13.13,30.57-22,26.17-35.46a19.34,19.34,0,0,0-5.15-8c1-.17,1.94-.38,2.9-.62C256.23,129.13,267,116.39,264,104.76Zm-50.82,65.41c-13.49,3.42-26.38-1.58-28.82-11.17s6.51-20.16,20-23.58,26.38,1.58,28.82,11.17S226.7,166.75,213.21,170.17Zm1.51-52.4c-2-8,4.87-16.66,15.42-19.34s20.76,1.62,22.79,9.63-4.88,16.65-15.42,19.33S216.75,125.76,214.72,117.77Z"/>
    </g>
    <path class="a" d="M254.64,314.33"/>
    <path class="a" d="M257.43,313.78a51.11,51.11,0,0,1-3.62-5.73Z"/>
    <path class="a" d="M373,354.18c-51.81,30.06-97.8,24.59-129.62,13.84a64.17,64.17,0,0,1-6.06-2.4c-13.76-6.19-25.26-16.73-34.24-28.71a104.73,104.73,0,0,1-8.47-13.18c-.88-1.63-1.7-3.29-2.44-5-3.7-8.56-4.4-17.64-4.73-26.88A133.79,133.79,0,0,1,189,265.49a99.34,99.34,0,0,1,17.52-42.71c23.92,2.56,50.18-6.41,70.53-25.78q2.79-2.69,5.45-5.62a96.52,96.52,0,0,0,24.22-50.71c5.58-2.52,21.21-9.65,41-19.56a255.13,255.13,0,0,0-18.89,46.34,168.94,168.94,0,0,0-17.46,9.39c-3.9,2.35-7.76,4.84-11.52,7.48-15.3,10.74-29.13,24-38.87,39.87-15.05,24.53-17.82,56.92-7.13,83.85l3.62,5.73a45.9,45.9,0,0,0,3.8,4.6c.75.8,1.79.12,2.18-.68a3.48,3.48,0,0,0,.22-2.09,6.28,6.28,0,0,0-.62-1.55,11.4,11.4,0,0,1-.63-1.72c-.05-.19-.11-.38-.15-.57a24.29,24.29,0,0,1-.52-3.05,98.92,98.92,0,0,1-.54-11.55v-.08a176.31,176.31,0,0,1,7.62-30.75c9.37-27.58,27.9-54.06,53.14-69.11a252.22,252.22,0,0,0-3.13,53.45s-.93,36.87,18.82,67.86a0,0,0,0,0,0,0l0,.07C344.18,330.39,359.18,343.62,373,354.18Z"/>
    <path class="a" d="M447.15,264.63a42.91,42.91,0,0,1-2.21,8.56c-9.2,24.54-28.05,51-57.14,71.76l-.1-.06A127.29,127.29,0,0,1,377,337.46l-.09-.07h0q-5-3.87-9.95-8.49l-.11-.1-.09-.09a92.25,92.25,0,0,1-17.63-24.57,98.75,98.75,0,0,1-6.21-16c-.25-.86-.49-1.71-.72-2.57l-.15-.58q-.78-3-1.39-6c-3.43-16.72-3.49-34.35-2.57-51.26a370.74,370.74,0,0,1,4.34-39.6,87.56,87.56,0,0,1,11.17-2.57c29.23-4.74,62.43,6.05,80.09,30.58C443.24,229.33,449.73,247.89,447.15,264.63Z"/>
    <path class="a" d="M367,328.9q5,4.64,9.95,8.49a84.23,84.23,0,0,1-7.54-6.18C368.58,330.46,367.78,329.69,367,328.9Z"/>
    <path class="a" d="M387.8,345s-.05,0-.1-.06Z"/>
    <path class="a" d="M407.65,75.12l-3.74,2.45c-3.6,2.37-7.51,4.69-11.63,6.94-5.47,3-11.3,5.89-17.27,8.64,4.73-8.25,9.68-15.91,14.74-23,.43-.6.86-1.2,1.29-1.77,0,0,.67.2,1.8.59A114.29,114.29,0,0,1,407.65,75.12Z"/>
    <path class="a" d="M250.89,402.84"/>
    <path class="b" d="M306.85,118.48c9.07-2.75,31-9.67,53.58-19"/>
    <path class="a" d="M111.48,121.34c2.35.21-144.6,157.68-63.32,229.28,0,0,3.07,1.19-2.55.68-18.76-1.7-32.78-14-41.36-31.18C-8.34,294.93,9.33,250.77,27.4,219.67,49.44,181.71,78.47,147.35,111.48,121.34Z"/>
    <path class="b" d="M167.12,205c-14.87,39.85-33.12,142.21,95,174.45"/>
    <path class="b" d="M261.17,297.09a176.31,176.31,0,0,1,7.62-30.75c9.37-27.58,27.9-54.06,53.14-69.11"/>
    <path class="b" d="M394.42,63.77l-.12.16"/>
    <path class="c" d="M347.68,121.12c-19.76,9.91-35.39,17-41,19.56l-2.21,1"/>
  </g>
</svg>
